<?xml version="1.0" standalone="no"?>
<!DOCTYPE svg PUBLIC "-//W3C//DTD SVG 20010904//EN"
 "http://www.w3.org/TR/2001/REC-SVG-20010904/DTD/svg10.dtd">
<svg version="1.0" xmlns="http://www.w3.org/2000/svg"
 width="512.000000pt" height="512.000000pt" viewBox="0 0 512.000000 512.000000"
 preserveAspectRatio="xMidYMid meet">
<metadata>
Created by potrace 1.14, written by Peter Selinger 2001-2017
</metadata>
<g transform="translate(0.000000,512.000000) scale(0.100000,-0.100000)"
fill="#000000" stroke="none">
<path d="M760 5099 c-55 -25 -114 -80 -143 -134 -17 -31 -22 -57 -22 -120 0
-70 4 -87 30 -134 31 -56 88 -106 148 -128 57 -21 156 -16 213 11 28 13 54 29
58 34 4 7 91 -38 219 -112 l212 -122 3 -161 2 -161 -117 -4 c-130 -5 -168 -17
-226 -67 -62 -55 -80 -108 -85 -244 l-4 -117 -161 2 -161 3 -122 212 c-74 128
-119 215 -112 219 5 4 21 30 34 58 70 150 -14 336 -172 382 -186 54 -371 -99
-351 -291 17 -169 170 -276 342 -242 l41 8 132 -230 c73 -126 140 -232 148
-235 9 -3 99 -6 200 -6 l184 0 0 -450 0 -450 -250 0 -249 0 -22 50 c-24 56
-91 123 -147 148 -61 26 -167 21 -228 -11 -204 -105 -204 -389 0 -494 61 -32
167 -37 228 -11 56 25 123 92 147 148 l22 50 249 0 250 0 0 -450 0 -450 -184
0 c-101 0 -191 -3 -200 -6 -8 -3 -75 -109 -148 -235 l-132 -230 -41 8 c-194
38 -358 -101 -343 -291 19 -236 304 -340 471 -172 49 49 71 101 75 182 3 57 0
81 -18 122 -12 28 -28 56 -35 62 -11 9 11 54 109 223 l122 212 161 3 161 2 4
-117 c6 -129 18 -169 68 -227 52 -59 108 -79 243 -84 l117 -4 -2 -161 -3 -161
-212 -122 c-128 -74 -215 -119 -219 -112 -16 25 -110 58 -168 58 -90 0 -134
-17 -198 -80 -44 -43 -60 -67 -72 -109 -32 -110 -11 -197 68 -276 199 -200
519 -21 463 260 l-8 40 218 125 c119 69 225 133 235 143 16 15 18 37 18 207
l0 190 450 0 450 0 -2 -252 -3 -252 -35 -10 c-20 -6 -59 -34 -92 -66 -46 -45
-60 -66 -73 -114 -51 -178 81 -356 265 -356 183 0 317 179 265 355 -13 46 -28
70 -73 115 -34 33 -71 60 -92 66 l-35 10 -3 252 -2 252 450 0 450 0 0 -190 c0
-170 2 -192 18 -207 10 -10 116 -74 235 -143 l217 -125 -7 -35 c-28 -131 23
-251 136 -317 66 -39 170 -44 242 -11 103 47 159 127 167 241 4 60 2 73 -27
131 -51 105 -134 157 -248 158 -52 0 -76 -6 -129 -32 l-65 -32 -127 73 c-70
40 -164 95 -209 121 l-83 49 0 158 0 159 118 4 c135 5 188 24 243 85 50 58 62
96 67 226 l4 117 159 0 158 0 49 -82 c26 -46 81 -140 121 -210 l73 -127 -32
-65 c-29 -59 -32 -72 -28 -138 4 -84 24 -130 76 -184 70 -72 176 -99 277 -70
45 14 69 29 110 69 202 202 18 525 -265 464 l-36 -7 -124 217 c-69 120 -133
226 -142 235 -16 16 -39 18 -208 18 l-190 0 0 450 0 450 250 0 250 0 10 -27
c18 -49 33 -72 69 -109 129 -131 342 -99 439 64 24 41 27 57 27 132 0 75 -3
91 -27 132 -126 213 -424 187 -508 -44 l-10 -28 -250 0 -250 0 0 450 0 450
190 0 c169 0 192 2 208 18 9 9 73 115 142 235 l124 217 36 -7 c131 -28 251 23
317 136 39 66 44 170 11 242 -47 103 -127 159 -241 167 -60 4 -73 2 -131 -27
-105 -51 -157 -134 -158 -248 0 -52 6 -76 32 -129 l32 -65 -73 -127 c-40 -70
-95 -164 -121 -209 l-49 -83 -158 0 -159 0 -4 118 c-5 135 -24 188 -85 243
-58 50 -96 62 -225 67 l-118 4 0 159 0 158 83 49 c45 26 139 81 209 121 l127
73 62 -31 c243 -121 496 127 375 367 -105 208 -404 198 -498 -16 -21 -47 -28
-125 -15 -182 l7 -35 -217 -125 c-119 -69 -225 -133 -235 -142 -16 -16 -18
-38 -18 -208 l0 -190 -450 0 -450 0 0 250 0 249 50 22 c69 30 135 105 156 177
51 173 -84 352 -266 352 -182 0 -317 -179 -266 -352 21 -72 87 -147 156 -177
l50 -22 0 -249 0 -250 -450 0 -450 0 0 190 c0 169 -2 192 -18 208 -10 9 -116
73 -235 142 l-218 124 8 41 c29 145 -46 286 -175 329 -64 22 -147 20 -202 -5z
m3120 -1175 c64 -39 60 60 60 -1364 0 -1178 -1 -1294 -16 -1320 -39 -64 60
-60 -1364 -60 -1134 0 -1295 2 -1320 15 -64 33 -60 -53 -60 1365 0 1133 2
1295 15 1320 33 63 -55 59 1363 60 1180 0 1296 -1 1322 -16z"/>
<path d="M2112 3440 c-35 -15 -42 -50 -42 -211 l0 -149 -250 0 c-237 0 -251
-1 -270 -20 -20 -20 -20 -33 -20 -684 0 -591 2 -666 16 -680 33 -34 65 -20
267 119 l196 135 498 0 c415 0 502 2 519 14 17 13 19 30 22 180 l3 166 36 0
c29 0 69 -23 227 -132 105 -72 199 -133 208 -136 10 -2 29 3 43 12 l25 16 0
668 c0 367 -4 672 -8 678 -22 33 -49 34 -749 33 -394 0 -708 -4 -721 -9z
m1358 -670 l0 -551 -92 64 c-230 159 -227 157 -279 157 l-48 0 -3 301 -3 301
-24 19 c-22 18 -44 19 -422 19 l-399 0 0 120 0 120 635 0 635 0 0 -550z
m-1398 -115 c3 -276 5 -306 21 -322 16 -17 50 -18 422 -21 l405 -3 0 -119 0
-120 -476 0 -476 0 -153 -105 c-85 -58 -156 -105 -159 -105 -3 0 -6 248 -6
550 l0 550 210 0 209 0 3 -305z"/>
</g>
</svg>
